<?xml version="1.0" encoding="UTF-8"?>
<!DOCTYPE svg PUBLIC "-//W3C//DTD SVG 1.1//EN" "http://www.w3.org/Graphics/SVG/1.1/DTD/svg11.dtd">
<svg version="1.1" xmlns="http://www.w3.org/2000/svg" xmlns:xlink="http://www.w3.org/1999/xlink" x="0" y="0" width="666.755" height="873.432" viewBox="0, 0, 666.755, 873.432">
  <g id="Layer_1">
    <path d="M140.527,742.659 L102.326,742.659 L102.326,757.19 L121.543,757.19 C121.543,768.673 112.403,775.704 100.92,775.704 C86.624,775.704 77.484,765.158 77.484,745.706 C77.484,726.957 86.389,715.942 100.451,715.942 C110.528,715.942 117.325,721.098 120.137,729.769 L139.824,729.769 C137.246,711.724 121.075,698.834 100.451,698.834 C76.312,698.834 58.032,716.177 58.032,745.94 C58.032,775.001 75.374,792.812 100.92,792.812 C124.121,792.812 140.761,778.282 140.761,754.143 z" fill="#FFFFFF" id="path26"/>
    <path d="M177.79,734.925 L177.087,734.925 L177.087,722.973 L158.572,722.973 L158.572,791.641 L177.555,791.641 L177.555,752.737 C177.555,744.3 183.649,738.675 191.383,738.675 C193.961,738.675 196.07,739.378 197.945,740.316 L203.57,724.614 C200.992,723.207 197.945,722.036 194.195,722.036 C186.461,722.036 180.133,726.488 177.79,734.925 z" fill="#FFFFFF" id="path28"/>
    <path d="M242.005,722.036 C225.131,722.036 214.35,730.004 211.772,742.425 L229.349,743.831 C230.755,739.378 234.739,735.863 241.536,735.863 C248.098,735.863 251.613,739.144 251.613,744.769 C251.613,749.221 246.926,749.924 234.974,751.096 C221.381,752.268 209.194,756.955 209.194,772.189 C209.194,785.782 218.803,792.578 231.927,792.578 C242.005,792.578 248.567,788.125 252.082,781.797 L252.551,781.797 L252.551,791.406 L270.597,791.406 L270.597,745.237 C270.831,728.832 256.769,722.036 242.005,722.036 z M251.848,767.033 C251.848,774.298 245.989,779.688 237.552,779.688 C231.693,779.688 227.474,776.876 227.474,771.72 C227.474,766.33 231.927,763.752 238.489,762.814 C242.708,762.346 249.504,761.174 251.613,759.768 L251.613,767.033 z" fill="#FFFFFF" id="path30"/>
    <path d="M328.484,722.036 C317,722.036 311.61,728.832 309.032,734.457 L308.094,734.457 L308.094,722.973 L289.345,722.973 L289.345,817.42 L308.329,817.42 L308.329,780.626 L308.797,780.626 C311.375,786.25 317.234,792.812 328.249,792.812 C343.951,792.812 356.138,780.391 356.138,757.424 C356.372,733.754 343.483,722.036 328.484,722.036 z M322.39,777.579 C313.25,777.579 308.094,769.611 307.86,757.19 C307.86,745.003 313.016,737.035 322.39,737.035 C331.765,737.035 336.921,745.237 336.921,757.19 C336.921,769.376 331.765,777.579 322.39,777.579 z" fill="#FFFFFF" id="path32"/>
    <path d="M412.619,722.036 C402.307,722.036 395.276,726.957 391.995,734.925 L391.292,734.925 L391.292,700.006 L372.778,700.006 L372.778,791.641 L391.761,791.641 L391.761,751.799 C391.761,742.894 397.151,737.738 404.885,737.738 C412.619,737.738 417.072,742.659 417.072,751.096 L417.072,791.406 L436.055,791.406 L436.055,747.815 C436.289,731.879 426.915,722.036 412.619,722.036 z" fill="#FFFFFF" id="path34"/>
    <path d="M534.252,799.14 L521.128,782.735 C530.033,774.767 535.658,762.111 535.658,745.94 C535.658,715.942 517.144,698.834 492.77,698.834 C468.397,698.834 449.882,715.942 449.882,745.94 C449.882,775.704 468.397,793.047 492.77,793.047 C498.395,793.047 503.785,792.109 508.707,790.234 L515.972,799.375 L534.252,799.375 z M509.41,768.439 L502.613,759.768 L486.208,759.768 L497.926,775.235 C496.286,775.47 494.645,775.704 493.005,775.704 C478.943,775.704 469.803,765.158 469.803,745.706 C469.803,726.254 478.943,715.708 493.005,715.708 C507.066,715.708 516.206,726.254 516.206,745.706 C516.206,755.783 513.628,763.517 509.41,768.439 z" fill="#FFFFFF" id="path36"/>
    <path d="M553.938,700.006 L553.938,791.641 L612.528,791.641 L612.528,775.704 L573.156,775.704 L573.156,700.006 z" fill="#FFFFFF" id="polygon38"/>
    <path d="M576.155,285.133 C602.353,270.036 611.233,236.29 596.136,210.092 C581.039,183.894 547.736,175.013 521.983,190.11 C517.098,192.774 513.102,196.327 509.55,199.879 L383.888,126.613 C385.22,121.729 386.108,116.401 386.108,111.072 C386.108,80.434 361.687,56.012 331.936,56.012 C302.186,56.012 277.32,80.434 277.32,111.072 C277.32,116.401 278.208,121.729 279.54,126.613 L153.879,199.879 C150.327,196.327 146.331,192.774 141.446,190.11 C115.692,174.569 82.39,183.894 67.293,210.092 C52.196,236.29 61.52,270.036 87.274,285.133 C91.715,287.797 96.599,289.573 101.927,290.906 L101.927,437.436 C97.043,438.769 92.159,440.545 87.718,443.209 C61.52,458.306 52.64,492.053 67.737,518.25 C82.834,544.448 115.692,553.329 141.89,538.232 C146.331,535.568 150.327,532.016 153.879,528.463 L279.54,601.729 C278.208,606.613 277.32,611.941 277.32,617.27 C277.32,647.464 301.742,672.33 331.492,672.33 C361.243,672.33 385.664,647.464 385.664,617.27 C385.664,611.053 384.776,605.281 383,599.953 L507.773,527.131 C511.326,531.571 516.21,535.124 521.094,538.232 C547.292,553.329 580.595,544.448 595.248,518.25 C610.345,492.053 601.464,458.306 575.266,443.209 C570.826,440.545 565.942,438.769 561.057,437.436 L561.057,290.906 C566.83,289.573 571.27,287.797 576.155,285.133 z M129.901,437.88 C129.013,437.88 128.569,437.436 127.681,437.436 L127.681,290.906 C141.446,287.353 153.879,278.473 161.872,265.152 C169.42,251.831 170.752,236.29 167.2,222.525 L292.861,149.259 C293.306,149.703 293.75,150.147 294.194,150.591 z M371.899,579.971 C362.131,568.87 347.478,562.21 331.936,562.21 C316.395,562.21 302.63,568.87 292.861,579.083 L166.756,505.818 C166.756,504.929 167.2,504.485 167.2,503.597 L495.785,503.597 C496.229,504.929 496.229,505.818 496.673,507.15 z M501.557,463.19 C498.893,467.631 497.117,472.515 495.785,477.843 L167.644,477.843 C166.312,472.959 164.536,468.075 161.872,463.19 C159.208,458.75 156.099,454.31 152.103,450.757 L316.395,163.468 C321.28,164.8 326.164,165.688 331.492,165.688 C336.821,165.688 341.705,164.8 346.589,163.468 L510.882,450.757 C507.773,454.31 504.221,458.306 501.557,463.19 z M535.748,437.436 C534.859,437.436 534.415,437.88 533.527,437.88 L369.235,150.591 C369.679,150.147 370.123,149.703 370.567,149.259 L496.229,222.525 C492.232,236.29 493.564,251.387 501.557,265.152 C509.106,278.473 521.539,287.353 535.748,290.906 C535.748,290.906 535.748,437.436 535.748,437.436 z" fill="#FFFFFF" id="path40"/>
  </g>
</svg>
