<svg xmlns="http://www.w3.org/2000/svg" xmlns:xlink="http://www.w3.org/1999/xlink" width="436.8" height="138.7" x="0" y="0" version="1.1" viewBox="0 0 436.8 138.7"><g id="Layer_1"><path fill="#000" d="M152.4,116.4 L157.1,116.4 L157.1,98.9 L174.1,98.9 L174.1,94.7 L157.1,94.7 L157.1,81.5 L175.8,81.5 L175.8,77.3 L152.4,77.3 z"/><path fill="#000" d="M193.6,86.7 C185.7,86.7 180.3,92.7 180.3,101.9 C180.3,111 185.6,117 193.6,117 C201.6,117 206.9,111 206.9,101.9 C206.9,92.7 201.5,86.7 193.6,86.7 z M193.6,112.9 C187.6,112.9 184.8,107.7 184.8,101.8 C184.8,95.9 187.5,90.7 193.6,90.7 C199.6,90.7 202.4,96 202.4,101.8 C202.4,107.7 199.6,112.9 193.6,112.9 z"/><path fill="#000" d="M232.8,104.4 C232.8,109.9 228.6,112.4 225.2,112.4 C221.5,112.4 218.8,109.7 218.8,105.4 L218.8,87.1 L214.3,87.1 L214.3,105.7 C214.3,113.2 218.3,116.8 223.8,116.8 C228.2,116.8 231.1,114.4 232.5,111.5 L232.8,111.5 L232.8,116.5 L237.3,116.5 L237.3,87.1 L232.8,87.1 L232.8,104.4 z"/><path fill="#000" d="M260.4,86.7 C256,86.7 253.2,88.7 251.9,91.7 L251.5,91.7 L251.5,87.1 L247.2,87.1 L247.2,116.4 L251.7,116.4 L251.7,98.7 C251.7,93.6 254.9,90.7 259.2,90.7 C263.4,90.7 265.9,93.4 265.9,98 L265.9,116.3 L270.4,116.3 L270.4,97.7 C270.3,90.3 266.3,86.7 260.4,86.7 z"/><path fill="#000" d="M299.6,91.7 L299.2,91.7 C298.2,90.2 296.5,86.7 290.7,86.7 C283.3,86.7 278.2,92.6 278.2,101.8 C278.2,111.1 283.3,117 290.6,117 C296.2,117 298.2,113.5 299.1,111.9 L299.6,111.9 L299.6,116.4 L303.9,116.4 L303.9,77.3 L299.4,77.3 L299.4,91.7 L299.6,91.7 z M291.3,112.9 C285.7,112.9 282.8,107.9 282.8,101.7 C282.8,95.5 285.6,90.7 291.3,90.7 C296.8,90.7 299.7,95.1 299.7,101.7 C299.7,108.3 296.7,112.9 291.3,112.9 z"/><path fill="#000" d="M325.1,86.7 C320.7,86.7 315.6,88.2 313.4,93.6 L317.7,95.1 C318.7,93 321,90.7 325.3,90.7 C329.5,90.7 331.5,92.9 331.5,96.7 C331.5,98.9 329.3,98.8 323.9,99.4 C318.5,100.1 312.5,101.3 312.5,108 C312.5,113.7 316.9,117 322.5,117 C327.6,117 330.3,114.3 331.2,112.3 L331.4,112.3 L331.4,116.3 L335.9,116.3 L335.9,97.1 C336,87.8 328.9,86.7 325.1,86.7 z M331.5,105.8 C331.5,109.5 328.6,113 323.3,113 C319.7,113 317.1,111.4 317.1,108.3 C317.1,104.9 320.2,103.8 323.7,103.3 C325.6,103.1 330.7,102.5 331.5,101.6 L331.5,105.8 L331.5,105.8 z"/><path fill="#000" d="M356.2,112.4 C354.2,112.4 352.3,111.8 352.3,108 L352.3,90.9 L358.6,90.9 L358.6,87.1 L352.3,87.1 L352.3,80.1 L347.8,80.1 L347.8,87.1 L343.4,87.1 L343.4,90.9 L347.8,90.9 L347.8,109.2 C347.8,114.3 351.9,116.8 355.7,116.8 C357.4,116.8 358.4,116.5 359.1,116.3 L358.2,112.3 C357.8,112.2 357.2,112.4 356.2,112.4 z"/><path fill="#000" d="M367.2,87.1 L371.7,87.1 L371.7,116.4 L367.2,116.4 z"/><path fill="#000" d="M369.5,76.2 C367.7,76.2 366.3,77.6 366.3,79.3 C366.3,81 367.8,82.4 369.5,82.4 C371.3,82.4 372.7,81 372.7,79.3 C372.7,77.5 371.3,76.2 369.5,76.2 z"/><path fill="#000" d="M393,86.7 C385.1,86.7 379.7,92.7 379.7,101.9 C379.7,111 385,117 393,117 C401,117 406.3,111 406.3,101.9 C406.2,92.7 400.9,86.7 393,86.7 z M393,112.9 C387,112.9 384.2,107.7 384.2,101.8 C384.2,95.9 386.9,90.7 393,90.7 C399,90.7 401.8,96 401.8,101.8 C401.7,107.7 399,112.9 393,112.9 z"/><path fill="#000" d="M426.9,86.7 C422.5,86.7 419.7,88.7 418.4,91.7 L418,91.7 L418,87.1 L413.7,87.1 L413.7,116.4 L418.2,116.4 L418.2,98.7 C418.2,93.6 421.4,90.7 425.7,90.7 C429.9,90.7 432.4,93.4 432.4,98 L432.4,116.3 L436.9,116.3 L436.9,97.7 C436.8,90.3 432.8,86.7 426.9,86.7 z"/><path fill="#000" d="M184.2,37.3 L167.9,37.3 L167.9,43.5 L176.1,43.5 C176.1,48.4 172.2,51.4 167.3,51.4 C161.2,51.4 157.3,46.9 157.3,38.6 C157.3,30.6 161.1,25.9 167.1,25.9 C171.4,25.9 174.3,28.1 175.5,31.8 L183.9,31.8 C182.8,24.1 175.9,18.6 167.1,18.6 C156.8,18.6 149,26 149,38.7 C149,51.1 156.4,58.7 167.3,58.7 C177.2,58.7 184.3,52.5 184.3,42.2 L184.2,37.3 L184.2,37.3 z"/><path fill="#000" d="M200.1,34 L199.8,34 L199.8,28.9 L191.9,28.9 L191.9,58.2 L200,58.2 L200,41.6 C200,38 202.6,35.6 205.9,35.6 C207,35.6 207.9,35.9 208.7,36.3 L211.1,29.6 C210,29 208.7,28.5 207.1,28.5 C203.8,28.5 201.1,30.4 200.1,34 z"/><path fill="#000" d="M227.5,28.5 C220.3,28.5 215.7,31.9 214.6,37.2 L222.1,37.8 C222.7,35.9 224.4,34.4 227.3,34.4 C230.1,34.4 231.6,35.8 231.6,38.2 C231.6,40.1 229.6,40.4 224.5,40.9 C218.7,41.4 213.5,43.4 213.5,49.9 C213.5,55.7 217.6,58.6 223.2,58.6 C227.5,58.6 230.3,56.7 231.8,54 L232,54 L232,58.1 L239.7,58.1 L239.7,38.4 C239.8,31.4 233.8,28.5 227.5,28.5 z M231.7,47.7 C231.7,50.8 229.2,53.1 225.6,53.1 C223.1,53.1 221.3,51.9 221.3,49.7 C221.3,47.4 223.2,46.3 226,45.9 C227.8,45.7 230.7,45.2 231.6,44.6 L231.6,47.7 L231.7,47.7 z"/><path fill="#000" d="M264.4,28.5 C259.5,28.5 257.2,31.4 256.1,33.8 L255.7,33.8 L255.7,28.9 L247.7,28.9 L247.7,69.2 L255.8,69.2 L255.8,53.5 L256,53.5 C257.1,55.9 259.6,58.7 264.3,58.7 C271,58.7 276.2,53.4 276.2,43.6 C276.3,33.5 270.8,28.5 264.4,28.5 z M261.8,52.2 C257.9,52.2 255.7,48.8 255.6,43.5 C255.6,38.3 257.8,34.9 261.8,34.9 C265.8,34.9 268,38.4 268,43.5 C268,48.7 265.8,52.2 261.8,52.2 z"/><path fill="#000" d="M300.3,28.5 C295.9,28.5 292.9,30.6 291.5,34 L291.2,34 L291.2,19.1 L283.3,19.1 L283.3,58.2 L291.4,58.2 L291.4,41.2 C291.4,37.4 293.7,35.2 297,35.2 C300.3,35.2 302.2,37.3 302.2,40.9 L302.2,58.1 L310.3,58.1 L310.3,39.5 C310.4,32.7 306.4,28.5 300.3,28.5 z"/><path fill="#000" d="M352.2,61.4 L346.6,54.4 C350.4,51 352.8,45.6 352.8,38.7 C352.8,25.9 344.9,18.6 334.5,18.6 C324.1,18.6 316.2,25.9 316.2,38.7 C316.2,51.4 324.1,58.8 334.5,58.8 C336.9,58.8 339.2,58.4 341.3,57.6 L344.4,61.5 L352.2,61.5 L352.2,61.4 z M341.6,48.3 L338.7,44.6 L331.7,44.6 L336.7,51.2 C336,51.3 335.3,51.4 334.6,51.4 C328.6,51.4 324.7,46.9 324.7,38.6 C324.7,30.3 328.6,25.8 334.6,25.8 C340.6,25.8 344.5,30.3 344.5,38.6 C344.5,42.9 343.4,46.2 341.6,48.3 z"/><path fill="#000" d="M385.6,51.4 L368.8,51.4 L368.8,19.1 L360.6,19.1 L360.6,58.2 L385.6,58.2 z"/><path fill="#000" d="M116.2,51.6 C122.1,48.2 124.1,40.6 120.7,34.7 C117.3,28.8 109.8,26.8 104,30.2 C102.9,30.8 102,31.6 101.2,32.4 L72.9,15.9 C73.2,14.8 73.4,13.6 73.4,12.4 C73.4,5.5 67.9,-0 61.2,-0 C54.5,-0 48.9,5.5 48.9,12.4 C48.9,13.6 49.1,14.8 49.4,15.9 L21.1,32.4 C20.3,31.6 19.4,30.8 18.3,30.2 C12.5,26.7 5,28.8 1.6,34.7 C-1.8,40.6 0.3,48.2 6.1,51.6 C7.1,52.2 8.2,52.6 9.4,52.9 L9.4,85.9 C8.3,86.2 7.2,86.6 6.2,87.2 C0.3,90.6 -1.7,98.2 1.7,104.1 C5.1,110 12.5,112 18.4,108.6 C19.4,108 20.3,107.2 21.1,106.4 L49.4,122.9 C49.1,124 48.9,125.2 48.9,126.4 C48.9,133.2 54.4,138.8 61.1,138.8 C67.8,138.8 73.3,133.2 73.3,126.4 C73.3,125 73.1,123.7 72.7,122.5 L100.8,106.1 C101.6,107.1 102.7,107.9 103.8,108.6 C109.7,112 117.2,110 120.5,104.1 C123.9,98.2 121.9,90.6 116,87.2 C115,86.6 113.9,86.2 112.8,85.9 L112.8,52.9 C114.1,52.6 115.1,52.2 116.2,51.6 z M15.7,86 C15.5,86 15.4,85.9 15.2,85.9 L15.2,52.9 C18.3,52.1 21.1,50.1 22.9,47.1 C24.6,44.1 24.9,40.6 24.1,37.5 L52.4,21 C52.5,21.1 52.6,21.2 52.7,21.3 L15.7,86 z M70.2,118 C68,115.5 64.7,114 61.2,114 C57.7,114 54.6,115.5 52.4,117.8 L24,101.3 C24,101.1 24.1,101 24.1,100.8 L98.1,100.8 C98.2,101.1 98.2,101.3 98.3,101.6 L70.2,118 z M99.4,91.7 C98.8,92.7 98.4,93.8 98.1,95 L24.2,95 C23.9,93.9 23.5,92.8 22.9,91.7 C22.3,90.7 21.6,89.7 20.7,88.9 L57.7,24.2 C58.8,24.5 59.9,24.7 61.1,24.7 C62.3,24.7 63.4,24.5 64.5,24.2 L101.5,88.9 C100.8,89.7 100,90.6 99.4,91.7 z M107.1,85.9 C106.9,85.9 106.8,86 106.6,86 L69.6,21.3 C69.7,21.2 69.8,21.1 69.9,21 L98.2,37.5 C97.3,40.6 97.6,44 99.4,47.1 C101.1,50.1 103.9,52.1 107.1,52.9 C107.1,52.9 107.1,85.9 107.1,85.9 z"/></g></svg>