<svg xmlns="http://www.w3.org/2000/svg" xmlns:xlink="http://www.w3.org/1999/xlink" width="324.091" height="339.347" x="0" y="0" version="1.1" viewBox="0 0 324.091 339.347"><g id="Background"><path id="path7936" fill-opacity="0" stroke="#0093D9" stroke-dasharray="1.597 3.194" stroke-linecap="round" stroke-width=".799" d="M223.785,133.925 L223.763,205.462 L162.022,241.211 L100.305,205.422 L100.328,133.885 L162.068,98.136 z"/><path id="path8410" fill-opacity="0" stroke="#DB3279" stroke-linecap="round" stroke-width=".799" d="M219.902,136.173 L219.88,203.211 L162.024,236.711 L104.189,203.173 L104.21,136.136 L162.067,102.636 z"/><path id="path8424" fill="#FFF" d="M227.669,131.676 L227.645,207.713 L162.021,245.711 L96.421,207.671 L96.446,131.634 L162.07,93.636 z"/></g><g id="Trim_Lines_copy"><path id="path362" fill-opacity="0" stroke="#0093D9" stroke-dasharray="1.597 3.194" stroke-linecap="round" stroke-width=".799" d="M223.785,133.925 L223.763,205.462 L162.022,241.211 L100.305,205.422 L100.328,133.885 L162.068,98.136 z" display="none"/><path id="path364" fill-opacity="0" stroke="#DB3279" stroke-linecap="round" stroke-width=".799" d="M219.902,136.173 L219.88,203.211 L162.024,236.711 L104.189,203.173 L104.21,136.136 L162.067,102.636 z" display="none"/><path id="path366" fill-opacity="0" stroke="#000" stroke-linecap="round" stroke-width=".799" d="M227.669,131.676 L227.645,207.713 L162.021,245.711 L96.421,207.671 L96.446,131.634 L162.07,93.636 z"/></g><g id="Project_artwork"><path id="path40" fill="#E434AA" d="M207.699,154.911 C212.592,152.092 214.251,145.79 211.431,140.896 C208.612,136.003 202.391,134.345 197.582,137.164 C196.669,137.662 195.923,138.325 195.26,138.99 L171.791,125.305 C172.039,124.394 172.205,123.398 172.205,122.403 C172.205,116.681 167.644,112.119 162.088,112.119 C156.53,112.119 151.887,116.681 151.887,122.403 C151.887,123.398 152.052,124.394 152.302,125.305 L128.832,138.99 C128.168,138.325 127.422,137.662 126.509,137.164 C121.7,134.262 115.481,136.003 112.66,140.896 C109.84,145.79 111.582,152.092 116.392,154.911 C117.221,155.409 118.134,155.741 119.13,155.99 L119.13,183.357 C118.217,183.606 117.304,183.938 116.475,184.434 C111.582,187.255 109.923,193.557 112.743,198.45 C115.563,203.344 121.7,205.002 126.593,202.183 C127.422,201.685 128.168,201.022 128.832,200.357 L152.302,214.041 C152.052,214.953 151.887,215.949 151.887,216.944 C151.887,222.583 156.447,227.227 162.005,227.227 C167.561,227.227 172.122,222.583 172.122,216.944 C172.122,215.783 171.956,214.705 171.624,213.709 L194.928,200.109 C195.591,200.939 196.504,201.602 197.415,202.183 C202.308,205.002 208.529,203.344 211.265,198.45 C214.084,193.557 212.426,187.255 207.533,184.434 C206.705,183.938 205.792,183.606 204.88,183.357 L204.88,155.99 C205.957,155.741 206.787,155.409 207.699,154.911 z M124.354,183.44 C124.188,183.44 124.104,183.357 123.939,183.357 L123.939,155.99 C126.509,155.326 128.832,153.667 130.325,151.18 C131.734,148.692 131.984,145.79 131.319,143.218 L154.79,129.535 C154.872,129.618 154.955,129.701 155.038,129.783 z M169.551,209.977 C167.727,207.905 164.989,206.661 162.088,206.661 C159.185,206.661 156.614,207.905 154.79,209.812 L131.237,196.129 C131.237,195.962 131.319,195.879 131.319,195.714 L192.689,195.714 C192.772,195.962 192.772,196.129 192.855,196.377 z M193.766,188.167 C193.27,188.996 192.937,189.909 192.689,190.904 L131.402,190.904 C131.154,189.992 130.823,189.079 130.325,188.167 C129.827,187.337 129.247,186.508 128.5,185.845 L159.185,132.188 C160.096,132.438 161.009,132.603 162.005,132.603 C162.999,132.603 163.912,132.438 164.824,132.188 L195.508,185.845 C194.928,186.508 194.264,187.255 193.766,188.167 z M200.153,183.357 C199.987,183.357 199.903,183.44 199.738,183.44 L169.053,129.783 C169.136,129.701 169.219,129.618 169.303,129.535 L192.772,143.218 C192.026,145.79 192.274,148.609 193.766,151.18 C195.177,153.667 197.498,155.326 200.153,155.99 C200.153,155.99 200.153,183.357 200.153,183.357 z"/></g><g id="Preview_Without_Bleeds" display="none"><path id="rect8416" fill="#AAA" d="M72,72 L72,267.347 L252.091,267.347 L252.091,72 z M162.069,98.136 L223.786,133.925 L223.762,205.462 L162.022,241.211 L100.305,205.422 L100.328,133.884 z"/></g></svg>