<svg xmlns="http://www.w3.org/2000/svg" xmlns:xlink="http://www.w3.org/1999/xlink" width="494" height="156" x="0" y="0" version="1.1" viewBox="0 0 494 156"><g id="Layer_1"><g><path fill="#E434AA" d="M212.14,69.263 L190.686,69.263 L190.686,77.424 L201.479,77.424 C201.479,83.873 196.346,87.822 189.896,87.822 C181.868,87.822 176.734,81.899 176.734,70.974 C176.734,60.444 181.736,54.258 189.633,54.258 C195.293,54.258 199.11,57.154 200.689,62.024 L211.745,62.024 C210.298,51.889 201.216,44.65 189.633,44.65 C176.076,44.65 165.81,54.39 165.81,71.106 C165.81,87.427 175.55,97.43 189.896,97.43 C202.927,97.43 212.272,89.269 212.272,75.712 L212.14,69.263 L212.14,69.263 z"/><path fill="#E434AA" d="M233.068,64.92 L232.673,64.92 L232.673,58.207 L222.275,58.207 L222.275,96.772 L232.936,96.772 L232.936,74.923 C232.936,70.184 236.359,67.025 240.702,67.025 C242.15,67.025 243.334,67.42 244.387,67.947 L247.546,59.128 C246.098,58.339 244.387,57.68 242.281,57.68 C237.938,57.68 234.384,60.181 233.068,64.92 z"/><path fill="#E434AA" d="M269.132,57.68 C259.655,57.68 253.601,62.156 252.153,69.131 L262.025,69.921 C262.814,67.42 265.052,65.446 268.869,65.446 C272.554,65.446 274.528,67.289 274.528,70.448 C274.528,72.948 271.896,73.343 265.183,74.001 C257.549,74.659 250.705,77.292 250.705,85.847 C250.705,93.481 256.102,97.298 263.472,97.298 C269.132,97.298 272.817,94.797 274.792,91.244 L275.055,91.244 L275.055,96.64 L285.19,96.64 L285.19,70.711 C285.321,61.497 277.424,57.68 269.132,57.68 z M274.66,82.952 C274.66,87.032 271.37,90.059 266.631,90.059 C263.341,90.059 260.972,88.48 260.972,85.584 C260.972,82.557 263.472,81.109 267.158,80.582 C269.527,80.319 273.344,79.661 274.528,78.871 L274.528,82.952 L274.66,82.952 z"/><path fill="#E434AA" d="M317.7,57.68 C311.251,57.68 308.223,61.497 306.775,64.656 L306.249,64.656 L306.249,58.207 L295.719,58.207 L295.719,111.25 L306.381,111.25 L306.381,90.586 L306.644,90.586 C308.092,93.744 311.382,97.43 317.568,97.43 C326.387,97.43 333.231,90.454 333.231,77.555 C333.363,64.261 326.124,57.68 317.7,57.68 z M314.278,88.875 C309.145,88.875 306.249,84.399 306.117,77.424 C306.117,70.579 309.013,66.104 314.278,66.104 C319.543,66.104 322.438,70.711 322.438,77.424 C322.438,84.268 319.543,88.875 314.278,88.875 z"/><path fill="#E434AA" d="M364.952,57.68 C359.16,57.68 355.212,60.444 353.369,64.92 L352.974,64.92 L352.974,45.308 L342.576,45.308 L342.576,96.772 L353.238,96.772 L353.238,74.396 C353.238,69.395 356.265,66.499 360.608,66.499 C364.952,66.499 367.453,69.263 367.453,74.001 L367.453,96.64 L378.114,96.64 L378.114,72.159 C378.245,63.208 372.981,57.68 364.952,57.68 z"/><path fill="#E434AA" d="M433.263,100.984 L425.892,91.77 C430.894,87.295 434.053,80.188 434.053,71.106 C434.053,54.258 423.655,44.65 409.966,44.65 C396.277,44.65 385.879,54.258 385.879,71.106 C385.879,87.822 396.277,97.561 409.966,97.561 C413.125,97.561 416.152,97.035 418.916,95.982 L422.996,101.115 L433.263,101.115 L433.263,100.984 z M419.311,83.741 L415.494,78.871 L406.281,78.871 L412.862,87.558 C411.94,87.69 411.019,87.822 410.098,87.822 C402.2,87.822 397.067,81.899 397.067,70.974 C397.067,60.05 402.2,54.127 410.098,54.127 C417.995,54.127 423.128,60.05 423.128,70.974 C423.128,76.634 421.68,80.977 419.311,83.741 z"/><path fill="#E434AA" d="M477.224,87.822 L455.112,87.822 L455.112,45.308 L444.319,45.308 L444.319,96.772 L477.224,96.772 z"/></g><path fill="#E434AA" d="M133.01,60.2 C138.91,56.8 140.91,49.2 137.51,43.3 C134.11,37.4 126.61,35.4 120.81,38.8 C119.71,39.4 118.81,40.2 118.01,41 L89.71,24.5 C90.01,23.4 90.21,22.2 90.21,21 C90.21,14.1 84.71,8.6 78.01,8.6 C71.31,8.6 65.71,14.1 65.71,21 C65.71,22.2 65.91,23.4 66.21,24.5 L37.91,41 C37.11,40.2 36.21,39.4 35.11,38.8 C29.31,35.3 21.81,37.4 18.41,43.3 C15.01,49.2 17.11,56.8 22.91,60.2 C23.91,60.8 25.01,61.2 26.21,61.5 L26.21,94.5 C25.11,94.8 24.01,95.2 23.01,95.8 C17.11,99.2 15.11,106.8 18.51,112.7 C21.91,118.6 29.31,120.6 35.21,117.2 C36.21,116.6 37.11,115.8 37.91,115 L66.21,131.5 C65.91,132.6 65.71,133.8 65.71,135 C65.71,141.8 71.21,147.4 77.91,147.4 C84.61,147.4 90.11,141.8 90.11,135 C90.11,133.6 89.91,132.3 89.51,131.1 L117.61,114.7 C118.41,115.7 119.51,116.5 120.61,117.2 C126.51,120.6 134.01,118.6 137.31,112.7 C140.71,106.8 138.71,99.2 132.81,95.8 C131.81,95.2 130.71,94.8 129.61,94.5 L129.61,61.5 C130.91,61.2 131.91,60.8 133.01,60.2 z M32.51,94.6 C32.31,94.6 32.21,94.5 32.01,94.5 L32.01,61.5 C35.11,60.7 37.91,58.7 39.71,55.7 C41.41,52.7 41.71,49.2 40.91,46.1 L69.21,29.6 C69.31,29.7 69.41,29.8 69.51,29.9 L32.51,94.6 z M87.01,126.6 C84.81,124.1 81.51,122.6 78.01,122.6 C74.51,122.6 71.41,124.1 69.21,126.4 L40.81,109.9 C40.81,109.7 40.91,109.6 40.91,109.4 L114.91,109.4 C115.01,109.7 115.01,109.9 115.11,110.2 L87.01,126.6 z M116.21,100.3 C115.61,101.3 115.21,102.4 114.91,103.6 L41.01,103.6 C40.71,102.5 40.31,101.4 39.71,100.3 C39.11,99.3 38.41,98.3 37.51,97.5 L74.51,32.8 C75.61,33.1 76.71,33.3 77.91,33.3 C79.11,33.3 80.21,33.1 81.31,32.8 L118.31,97.5 C117.61,98.3 116.81,99.2 116.21,100.3 z M123.91,94.5 C123.71,94.5 123.61,94.6 123.41,94.6 L86.41,29.9 C86.51,29.8 86.61,29.7 86.71,29.6 L115.01,46.1 C114.11,49.2 114.41,52.6 116.21,55.7 C117.91,58.7 120.71,60.7 123.91,61.5 C123.91,61.5 123.91,94.5 123.91,94.5 z"/></g></svg>