<?xml version="1.0" encoding="UTF-8" standalone="no"?>
<svg
   xmlns:dc="http://purl.org/dc/elements/1.1/"
   xmlns:cc="http://creativecommons.org/ns#"
   xmlns:rdf="http://www.w3.org/1999/02/22-rdf-syntax-ns#"
   xmlns:svg="http://www.w3.org/2000/svg"
   xmlns="http://www.w3.org/2000/svg"
   height="873.43237"
   width="666.75513"
   xml:space="preserve"
   viewBox="0 0 666.75513 873.43239"
   y="0px"
   x="0px"
   id="Layer_1"
   version="1.1"><metadata
     id="metadata49"><rdf:RDF><cc:Work
         rdf:about=""><dc:format>image/svg+xml</dc:format><dc:type
           rdf:resource="http://purl.org/dc/dcmitype/StillImage" /><dc:title></dc:title></cc:Work></rdf:RDF></metadata><defs
     id="defs47" /><style
     id="style2"
     type="text/css">
	.st0{fill:#E50695;}
</style><polygon
     transform="matrix(2.3436033,0,0,2.3436033,-357.16514,599.23077)"
     class="st0"
     points="157.1,98.9 174.1,98.9 174.1,94.7 157.1,94.7 157.1,81.5 175.8,81.5 175.8,77.3 152.4,77.3 152.4,116.4 157.1,116.4 "
     id="polygon4"
     style="fill:#e50695" /><path
     class="st0"
     d="m 96.556451,802.42118 c -18.51446,0 -31.16992,14.06162 -31.16992,35.62277 0,21.32679 12.4211,35.38841 31.16992,35.38841 18.748829,0 31.169929,-14.06162 31.169929,-35.38841 0,-21.56115 -12.65546,-35.62277 -31.169929,-35.62277 z m 0,61.4024 c -14.06162,0 -20.62371,-12.18673 -20.62371,-26.01399 0,-13.82726 6.32773,-26.014 20.62371,-26.014 14.061619,0 20.623709,12.4211 20.623709,26.014 0,13.82726 -6.56209,26.01399 -20.623709,26.01399 z"
     id="path6"
     style="fill:#e50695;stroke-width:2.34360337" /><path
     class="st0"
     d="m 188.4257,843.90295 c 0,12.88982 -9.84313,18.74883 -17.81138,18.74883 -8.67134,0 -14.99906,-6.32773 -14.99906,-16.40522 v -42.88794 h -10.54622 v 43.59102 c 0,17.57702 9.37441,26.014 22.26423,26.014 10.31186,0 17.10831,-5.62465 20.38935,-12.4211 h 0.70308 v 11.71801 h 10.54622 V 803.35862 H 188.4257 Z"
     id="path8"
     style="fill:#e50695;stroke-width:2.34360337" /><path
     class="st0"
     d="m 253.10915,802.42118 c -10.31185,0 -16.87394,4.6872 -19.92063,11.71801 h -0.93744 v -10.78057 h -10.07749 v 68.66757 h 10.54621 v -41.48177 c 0,-11.95238 7.49953,-18.74883 17.57703,-18.74883 9.84313,0 15.70214,6.32773 15.70214,17.1083 v 42.88794 h 10.54622 v -43.59102 c -0.23436,-17.34266 -9.60878,-25.77963 -23.43604,-25.77963 z"
     id="path10"
     style="fill:#e50695;stroke-width:2.34360337" /><path
     class="st0"
     d="m 344.9784,814.13919 h -0.93744 c -2.3436,-3.5154 -6.32773,-11.71801 -19.92063,-11.71801 -17.34266,0 -29.29504,13.82726 -29.29504,35.38841 0,21.79551 11.95238,35.62277 29.06068,35.62277 13.12418,0 17.81139,-8.20262 19.92063,-11.95238 h 1.1718 v 10.54621 h 10.0775 v -91.63488 h -10.54622 v 33.74788 z m -19.45191,49.68439 c -13.12417,0 -19.92062,-11.71801 -19.92062,-26.24835 0,-14.53034 6.56209,-25.77964 19.92062,-25.77964 12.88982,0 19.68627,10.31185 19.68627,25.77964 0,15.46778 -7.03081,26.24835 -19.68627,26.24835 z"
     id="path12"
     style="fill:#e50695;stroke-width:2.34360337" /><path
     class="st0"
     d="m 404.74029,802.42118 c -10.31186,0 -22.26424,3.5154 -27.42016,16.17086 l 10.07749,3.5154 c 2.3436,-4.92156 7.73389,-10.31185 17.81139,-10.31185 9.84313,0 14.53034,5.15593 14.53034,14.06162 0,5.15593 -5.15593,4.92157 -17.81139,6.32773 -12.65546,1.64052 -26.71708,4.45284 -26.71708,20.15499 0,13.35854 10.31186,21.09243 23.43604,21.09243 11.95237,0 18.2801,-6.32773 20.38935,-11.01494 h 0.46872 v 9.37441 h 10.54621 v -44.99718 c 0.23436,-21.79551 -16.40522,-24.37347 -25.31091,-24.37347 z m 14.99906,44.76282 c 0,8.67133 -6.79645,16.87394 -19.21755,16.87394 -8.43697,0 -14.53034,-3.74976 -14.53034,-11.01493 0,-7.96825 7.26517,-10.54622 15.46778,-11.71802 4.45285,-0.46872 16.40522,-1.87488 18.28011,-3.98412 z"
     id="path14"
     style="fill:#e50695;stroke-width:2.34360337" /><path
     class="st0"
     d="m 477.62635,862.65178 c -4.68721,0 -9.14005,-1.40616 -9.14005,-10.31185 v -40.07562 h 14.7647 v -8.90569 h -14.7647 v -16.40523 h -10.54622 v 16.40523 h -10.31185 v 8.90569 h 10.31185 v 42.88794 c 0,11.95238 9.60877,17.81139 18.51447,17.81139 3.98412,0 6.32773,-0.70309 7.96825,-1.17181 l -2.10924,-9.37441 c -0.93745,-0.23436 -2.34361,0.23436 -4.68721,0.23436 z"
     id="path16"
     style="fill:#e50695;stroke-width:2.34360337" /><rect
     x="503.40604"
     y="803.35858"
     class="st0"
     width="10.546215"
     height="68.667572"
     id="rect18"
     style="fill:#e50695;stroke-width:2.34360337" /><path
     class="st0"
     d="m 508.79627,777.81334 c -4.21848,0 -7.49953,3.28105 -7.49953,7.26517 0,3.98413 3.51541,7.26517 7.49953,7.26517 4.21849,0 7.49953,-3.28104 7.49953,-7.26517 0,-4.21848 -3.28104,-7.26517 -7.49953,-7.26517 z"
     id="path20"
     style="fill:#e50695;stroke-width:2.34360337" /><path
     class="st0"
     d="m 563.87095,802.42118 c -18.51447,0 -31.16992,14.06162 -31.16992,35.62277 0,21.32679 12.42109,35.38841 31.16992,35.38841 18.74883,0 31.16992,-14.06162 31.16992,-35.38841 -0.23436,-21.56115 -12.65545,-35.62277 -31.16992,-35.62277 z m 0,61.4024 c -14.06162,0 -20.62371,-12.18673 -20.62371,-26.01399 0,-13.82726 6.32773,-26.014 20.62371,-26.014 14.06162,0 20.62371,12.4211 20.62371,26.014 -0.23436,13.82726 -6.56209,26.01399 -20.62371,26.01399 z"
     id="path22"
     style="fill:#e50695;stroke-width:2.34360337" /><path
     class="st0"
     d="m 643.31914,802.42118 c -10.31189,0 -16.87398,4.6872 -19.92067,11.71801 h -0.93744 v -10.78057 h -10.07749 v 68.66757 h 10.54621 v -41.48177 c 0,-11.95238 7.49953,-18.74883 17.57703,-18.74883 9.84316,0 15.70216,6.32773 15.70216,17.1083 v 42.88794 h 10.5462 v -43.59102 c -0.2344,-17.34266 -9.6088,-25.77963 -23.436,-25.77963 z"
     id="path24"
     style="fill:#e50695;stroke-width:2.34360337" /><path
     class="st0"
     d="m 140.52658,686.64717 h -38.20073 v 14.53034 h 19.21754 c 0,11.48366 -9.14005,18.51447 -20.6237,18.51447 -14.295979,0 -23.436039,-10.54622 -23.436039,-29.99812 0,-18.74883 8.90569,-29.76376 22.967309,-29.76376 10.0775,0 16.87395,5.15592 19.68627,13.82725 h 19.68627 c -2.57796,-18.04574 -18.74883,-30.93556 -39.37254,-30.93556 -24.139109,0 -42.419219,17.34267 -42.419219,47.10643 0,29.06068 17.34267,46.87206 42.887949,46.87206 23.20167,0 39.84125,-14.53034 39.84125,-38.66945 z"
     id="path26"
     style="fill:#e50695;stroke-width:2.34360337" /><path
     class="st0"
     d="m 177.78987,678.91328 h -0.70308 v -11.95237 h -18.51446 v 68.66757 h 18.98318 v -38.90381 c 0,-8.43698 6.09337,-14.06162 13.82726,-14.06162 2.57797,0 4.68721,0.70308 6.56209,1.64052 l 5.62465,-15.70214 c -2.57796,-1.40616 -5.62465,-2.57797 -9.37441,-2.57797 -7.73389,0 -14.06162,4.45285 -16.40523,12.88982 z"
     id="path28"
     style="fill:#e50695;stroke-width:2.34360337" /><path
     class="st0"
     d="m 242.0046,666.02346 c -16.87394,0 -27.65452,7.96825 -30.23248,20.38935 l 17.57703,1.40617 c 1.40616,-4.45285 5.39028,-7.96826 12.18673,-7.96826 6.56209,0 10.0775,3.28105 10.0775,8.9057 0,4.45284 -4.68721,5.15592 -16.63959,6.32773 -13.5929,1.1718 -25.77963,5.859 -25.77963,21.09242 0,13.5929 9.60877,20.38935 22.73295,20.38935 10.07749,0 16.63958,-4.45284 20.15499,-10.78057 h 0.46872 v 9.60877 h 18.04574 v -46.16898 c 0.23436,-16.40523 -13.82726,-23.20168 -28.59196,-23.20168 z m 9.84314,44.99719 c 0,7.26517 -5.85901,12.65546 -14.29598,12.65546 -5.85901,0 -10.0775,-2.81233 -10.0775,-7.96826 0,-5.39028 4.45285,-7.96825 11.01494,-8.90569 4.21848,-0.46872 11.01493,-1.64052 13.12418,-3.04668 v 7.26517 z"
     id="path30"
     style="fill:#e50695;stroke-width:2.34360337" /><path
     class="st0"
     d="m 328.48357,666.02346 c -11.48366,0 -16.87395,6.79645 -19.45191,12.4211 h -0.93744 v -11.48365 h -18.74883 v 94.44721 h 18.98319 v -36.79457 h 0.46872 c 2.57796,5.62464 8.43697,12.18673 19.45191,12.18673 15.70214,0 27.88887,-12.42109 27.88887,-35.38841 0.23436,-23.67039 -12.65545,-35.38841 -27.65451,-35.38841 z m -6.09337,55.5434 c -9.14006,0 -14.29598,-7.96825 -14.53034,-20.38935 0,-12.18673 5.15592,-20.15499 14.53034,-20.15499 9.37441,0 14.53034,8.20262 14.53034,20.15499 0,12.18674 -5.15593,20.38935 -14.53034,20.38935 z"
     id="path32"
     style="fill:#e50695;stroke-width:2.34360337" /><path
     class="st0"
     d="m 412.61892,666.02346 c -10.31185,0 -17.34266,4.92157 -20.6237,12.88982 h -0.70309 v -34.91969 h -18.51446 v 91.63489 h 18.98318 v -39.84125 c 0,-8.9057 5.39029,-14.06162 13.12418,-14.06162 7.73389,0 12.18674,4.92156 12.18674,13.35854 v 40.30997 h 18.98319 V 691.8031 c 0.23436,-15.9365 -9.14006,-25.77964 -23.43604,-25.77964 z"
     id="path34"
     style="fill:#e50695;stroke-width:2.34360337" /><path
     class="st0"
     d="m 534.25194,743.12801 -13.12418,-16.40522 c 8.90569,-7.96825 14.53034,-20.62371 14.53034,-36.79457 0,-29.99812 -18.51447,-47.10643 -42.88794,-47.10643 -24.37348,0 -42.88794,17.10831 -42.88794,47.10643 0,29.76376 18.51446,47.10642 42.88794,47.10642 5.62464,0 11.01493,-0.93744 15.9365,-2.81232 l 7.26517,9.14005 h 18.28011 z m -24.8422,-30.7012 -6.79645,-8.67133 h -16.40522 l 11.71801,15.46778 c -1.64052,0.23436 -3.28104,0.46872 -4.92156,0.46872 -14.06162,0 -23.20168,-10.54622 -23.20168,-29.99812 0,-19.45191 9.14006,-29.99812 23.20168,-29.99812 14.06162,0 23.20167,10.54621 23.20167,29.99812 0,10.07749 -2.57796,17.81138 -6.79645,22.73295 z"
     id="path36"
     style="fill:#e50695;stroke-width:2.34360337" /><polygon
     transform="matrix(2.3436033,0,0,2.3436033,-291.16514,599.23077)"
     class="st0"
     points="360.6,19.1 360.6,58.2 385.6,58.2 385.6,51.4 368.8,51.4 368.8,19.1 "
     id="polygon38"
     style="fill:#e50695" /><path
     class="st0"
     d="m 576.15454,229.12102 c 26.198,-15.09712 35.0786,-48.84362 19.9815,-75.04157 -15.0971,-26.19794 -48.39961,-35.07861 -74.15352,-19.98149 -4.88437,2.66421 -8.88067,6.21647 -12.43292,9.76873 L 383.88825,70.60126 c 1.3321,-4.88438 2.22018,-10.21277 2.22018,-15.54115 C 386.10843,24.42182 361.68661,0 331.93641,0 c -29.75023,0 -54.61608,24.42182 -54.61608,55.06011 0,5.32838 0.88809,10.65677 2.22018,15.54115 l -125.66134,73.26543 c -3.55226,-3.55226 -7.54855,-7.10452 -12.43293,-9.76873 -25.75389,-15.54115 -59.056369,-6.21645 -74.153489,19.98149 -15.09712,26.19795 -5.77242,59.94445 19.98147,75.04157 4.44034,2.66419 9.3247,4.44032 14.653109,5.77242 v 146.53088 c -4.884379,1.3321 -9.768729,3.10825 -14.209059,5.77244 -26.19794,15.09712 -35.07861,48.84362 -19.98149,75.04157 15.09712,26.19795 47.955569,35.07861 74.153519,19.98149 4.44032,-2.66419 8.43661,-6.21647 11.98887,-9.76873 l 125.66134,73.26545 c -1.33209,4.88436 -2.22018,10.21275 -2.22018,15.54115 0,30.19424 24.42182,55.06009 54.17203,55.06009 29.75022,0 54.17202,-24.86585 54.17202,-55.06009 0,-6.21647 -0.88806,-11.98889 -2.66419,-17.3173 L 507.77347,471.119 c 3.55226,4.44032 8.43661,7.9926 13.32099,11.10082 26.19794,15.09712 59.50038,6.21646 74.15348,-19.98149 15.0971,-26.19795 6.2165,-59.94445 -19.9815,-75.04157 -4.4403,-2.66419 -9.3247,-4.44034 -14.209,-5.77244 V 234.89344 c 5.7724,-1.3321 10.2127,-3.10823 15.0971,-5.77242 z M 129.9014,381.86835 c -0.88806,0 -1.33209,-0.44403 -2.22018,-0.44403 V 234.89344 c 13.76502,-3.55226 26.19795,-12.43291 34.19055,-25.7539 7.54857,-13.32099 8.88067,-28.86214 5.32839,-42.62716 L 292.8615,93.24693 c 0.44404,0.44403 0.88807,0.88806 1.3321,1.33209 z m 241.99796,142.09057 c -9.76871,-11.10083 -24.4218,-17.76131 -39.96295,-17.76131 -15.54117,0 -29.30619,6.66048 -39.07491,16.87324 L 166.75613,449.80541 c 0,-0.88807 0.44403,-1.3321 0.44403,-2.22017 h 328.58441 c 0.44404,1.3321 0.44404,2.22017 0.88807,3.55228 z M 501.55699,407.17823 c -2.66419,4.44035 -4.44032,9.3247 -5.77242,14.65309 H 167.64419 c -1.3321,-4.88435 -3.10822,-9.76871 -5.77242,-14.65309 -2.66419,-4.44032 -5.77242,-8.88064 -9.76873,-12.43292 l 164.2922,-287.28933 c 4.88437,1.33212 9.76873,2.22018 15.09712,2.22018 5.3284,0 10.21276,-0.88806 15.09713,-2.22018 l 164.2922,287.28933 c -3.10822,3.55228 -6.6605,7.54857 -9.3247,12.43292 z m 34.19055,-25.75391 c -0.88806,0 -1.33209,0.44403 -2.22018,0.44403 L 369.23516,94.57902 c 0.44404,-0.44403 0.88807,-0.88806 1.3321,-1.33209 l 125.66135,73.26545 c -3.99631,13.76502 -2.6642,28.86214 5.32838,42.62716 7.54857,13.32099 19.9815,22.20164 34.19055,25.7539 0,0 0,146.53088 0,146.53088 z"
     id="path40"
     style="fill:#e50695;stroke-width:4.44033003" /></svg>